<?xml version="1.0" encoding="utf-8"?>
<!-- Generator: Adobe Illustrator 23.0.0, SVG Export Plug-In . SVG Version: 6.00 Build 0)  -->
<svg version="1.1" id="图层_1" xmlns="http://www.w3.org/2000/svg" xmlns:xlink="http://www.w3.org/1999/xlink" x="0px" y="0px"
	 viewBox="0 0 140 140" style="enable-background:new 0 0 140 140;" xml:space="preserve">
<style type="text/css">
	.st0{opacity:0.19;fill-rule:evenodd;clip-rule:evenodd;fill:#259F38;enable-background:new    ;}
	.st1{opacity:0.5;}
	.st2{fill-rule:evenodd;clip-rule:evenodd;fill:#259F38;}
	.st3{opacity:0.3;fill-rule:evenodd;clip-rule:evenodd;fill:#FFFFFF;enable-background:new    ;}
	.st4{fill-rule:evenodd;clip-rule:evenodd;fill:#C4FFBF;}
	.st5{fill:url(#SVGID_1_);}
	.st6{fill:#259F38;}
	.st7{clip-path:url(#SVGID_4_);}
	.st8{opacity:0.3;clip-path:url(#SVGID_5_);fill-rule:evenodd;clip-rule:evenodd;fill:#FFFFFF;enable-background:new    ;}
</style>
<title>5cun</title>
<g id="页面-3">
	<g id="尺寸选择" transform="translate(-60.000000, -198.000000)">
		<g transform="translate(30.000000, 168.000000)">
			<g id="编组-12" transform="translate(30.000000, 30.000000)">
				<g id="编组-3">
					<path id="矩形" class="st0" d="M10,0h120c5.5,0,10,4.5,10,10v120c0,5.5-4.5,10-10,10H10c-5.5,0-10-4.5-10-10V10
						C0,4.5,4.5,0,10,0z"/>
					<g transform="translate(6.000000, 6.000000)">
						<g id="蒙版" class="st1">
							<path class="st2" d="M10,0h108c5.5,0,10,4.5,10,10v108c0,5.5-4.5,10-10,10H10c-5.5,0-10-4.5-10-10V10C0,4.5,4.5,0,10,0z"/>
						</g>
						<path id="形状结合" class="st3" d="M-21,128l47.1-55l24.4,34.6l46-53.6l52.5,74H-21z"/>
						<circle id="椭圆形" class="st4" cx="104" cy="24" r="10"/>
					</g>
					<g>
						<g>
							<path id="path-4" d="M43.2,121c7.2,0,13.9-1.8,20-5.4s10.7-8.3,13.8-14.2c2.1-4.1,3.5-8.7,4.1-13.7c0.2-2.3,0.3-3.9,0.3-4.9
								c0-3.2-0.3-6.2-1-8.9c-1.5-5.9-4.6-10.6-9.2-14s-10.1-5.2-16.6-5.2c-4.8,0-9.3,1.1-13.4,3.4c-0.5,0.3-0.7,0.1-0.7-0.4l2-16.7
								c0.2-0.5,0.5-0.7,0.9-0.7h38.8c0.5,0,0.9-0.2,1.2-0.5s0.5-0.7,0.6-1.2l2-16.9c0.1-0.5,0-0.9-0.3-1.2C85.4,20.2,85,20,84.5,20
								H23.7c-0.5,0-0.9,0.2-1.2,0.5c-0.3,0.3-0.5,0.7-0.6,1.2l-7.2,58.8c-0.1,0.5,0,0.9,0.3,1.2c0.3,0.3,0.7,0.5,1.1,0.5h20.6
								c0.9,0,1.5-0.5,2-1.4c0.9-1.6,2.3-3,4.3-4s4.1-1.6,6.2-1.6c1.9,0,3.6,0.5,5,1.5s2.3,2.4,2.7,4.1c0.5,1.1,0.7,2.6,0.7,4.3
								c0,1.1,0,2-0.1,2.6c-0.3,2.9-1.1,5.2-2.4,7.2c-1.1,1.9-2.6,3.4-4.2,4.4c-1.7,1-3.5,1.5-5.5,1.5c-3.9,0-6.5-2-7.7-5.9
								c-0.4-1-0.6-1.7-0.7-2.3c-0.3-1-0.9-1.4-1.7-1.4H14.9c-1.2,0-1.9,0.6-1.9,1.9c0,3.1,0.4,6,1.1,8.6c1.8,6,5.3,10.8,10.4,14.2
								S35.8,121,43.2,121z"/>
						</g>
						<g>
							
								<radialGradient id="SVGID_1_" cx="37.4713" cy="69.5732" r="23.1354" gradientTransform="matrix(73 0 0 101 128028.9922 -918)" gradientUnits="userSpaceOnUse">
								<stop  offset="2.225240e-07" style="stop-color:#259F38;stop-opacity:0.5"/>
								<stop  offset="1" style="stop-color:#259F38"/>
							</radialGradient>
							<path class="st5" d="M43.2,121c7.2,0,13.9-1.8,20-5.4s10.7-8.3,13.8-14.2c2.1-4.1,3.5-8.7,4.1-13.7c0.2-2.3,0.3-3.9,0.3-4.9
								c0-3.2-0.3-6.2-1-8.9c-1.5-5.9-4.6-10.6-9.2-14s-10.1-5.2-16.6-5.2c-4.8,0-9.3,1.1-13.4,3.4c-0.5,0.3-0.7,0.1-0.7-0.4l2-16.7
								c0.2-0.5,0.5-0.7,0.9-0.7h38.8c0.5,0,0.9-0.2,1.2-0.5s0.5-0.7,0.6-1.2l2-16.9c0.1-0.5,0-0.9-0.3-1.2C85.4,20.2,85,20,84.5,20
								H23.7c-0.5,0-0.9,0.2-1.2,0.5c-0.3,0.3-0.5,0.7-0.6,1.2l-7.2,58.8c-0.1,0.5,0,0.9,0.3,1.2c0.3,0.3,0.7,0.5,1.1,0.5h20.6
								c0.9,0,1.5-0.5,2-1.4c0.9-1.6,2.3-3,4.3-4s4.1-1.6,6.2-1.6c1.9,0,3.6,0.5,5,1.5s2.3,2.4,2.7,4.1c0.5,1.1,0.7,2.6,0.7,4.3
								c0,1.1,0,2-0.1,2.6c-0.3,2.9-1.1,5.2-2.4,7.2c-1.1,1.9-2.6,3.4-4.2,4.4c-1.7,1-3.5,1.5-5.5,1.5c-3.9,0-6.5-2-7.7-5.9
								c-0.4-1-0.6-1.7-0.7-2.3c-0.3-1-0.9-1.4-1.7-1.4H14.9c-1.2,0-1.9,0.6-1.9,1.9c0,3.1,0.4,6,1.1,8.6c1.8,6,5.3,10.8,10.4,14.2
								S35.8,121,43.2,121z"/>
						</g>
					</g>
					<path id="寸" class="st6" d="M117,121c2.5,0,3.9-1.4,4-4V97h7v-4h-7v-7h-4v7H94v4h23v19c-0.2,0.8-0.7,1.3-2,1
						c-1.8,0.3-4,0.3-6,0l1,4H117z M107,112l3-3c-2.5-3.1-5.5-6-9-9l-3,3C101.8,106.1,104.8,109.2,107,112z"/>
				</g>
			</g>
		</g>
	</g>
</g>
<g id="页面-3_1_">
	<g id="尺寸选择_1_" transform="translate(-60.000000, -418.000000)">
		<g transform="translate(30.000000, 388.000000)">
			<g id="编组-13" transform="translate(30.000000, 30.000000)">
				<g id="编组-6">
					<g id="编组-5">
						<g transform="translate(6.000000, 6.000000)">
							<g>
								<defs>
									<polygon id="SVGID_2_" points="1,1 2,1 1,2 									"/>
								</defs>
								<defs>
									<polygon id="SVGID_3_" points="-1,-1 -2,-1 -1,-2 									"/>
								</defs>
								<clipPath id="SVGID_4_">
									<use xlink:href="#SVGID_2_"  style="overflow:visible;"/>
								</clipPath>
								<clipPath id="SVGID_5_" class="st7">
									<use xlink:href="#SVGID_3_"  style="overflow:visible;"/>
								</clipPath>
								<path id="形状结合_2_" class="st8" d="M141,128.5"/>
							</g>
						</g>
					</g>
				</g>
			</g>
		</g>
	</g>
</g>
</svg>
