<?xml version="1.0" encoding="utf-8"?>
<!-- Generator: Adobe Illustrator 23.0.0, SVG Export Plug-In . SVG Version: 6.00 Build 0)  -->
<svg version="1.1" id="图层_1" xmlns="http://www.w3.org/2000/svg" xmlns:xlink="http://www.w3.org/1999/xlink" x="0px" y="0px"
	 viewBox="0 0 140 140" style="enable-background:new 0 0 140 140;" xml:space="preserve">
<style type="text/css">
	.st0{opacity:0.19;fill-rule:evenodd;clip-rule:evenodd;fill:#259F38;enable-background:new    ;}
	.st1{opacity:0.5;}
	.st2{fill-rule:evenodd;clip-rule:evenodd;fill:#259F38;}
	.st3{clip-path:url(#SVGID_5_);}
	.st4{opacity:0.3;clip-path:url(#SVGID_6_);fill-rule:evenodd;clip-rule:evenodd;fill:#FFFFFF;enable-background:new    ;}
	.st5{opacity:0.3;fill-rule:evenodd;clip-rule:evenodd;fill:#FFFFFF;enable-background:new    ;}
	.st6{fill-rule:evenodd;clip-rule:evenodd;fill:#C4FFBF;}
	.st7{fill:url(#path-4_2_);}
	.st8{fill:url(#SVGID_7_);}
	.st9{fill:#259F38;}
</style>
<title>6cun</title>
<path id="矩形_1_" class="st0" d="M141,130.5c0,5.5-4.5,10-10,10H11c-5.5,0-10-4.5-10-10v-120c0-5.5,4.5-10,10-10h120
	c5.5,0,10,4.5,10,10"/>
<g id="蒙版_1_" class="st1">
	<path class="st2" d="M17,6.5h108c5.5,0,10,4.5,10,10v108c0,5.5-4.5,10-10,10H17c-5.5,0-10-4.5-10-10v-108C7,11,11.5,6.5,17,6.5z"/>
</g>
<g>
	<g>
		<defs>
			<polygon id="SVGID_1_" points="1,1 2,1 1,2 			"/>
		</defs>
		<clipPath id="SVGID_2_">
			<use xlink:href="#SVGID_1_"  style="overflow:visible;"/>
		</clipPath>
	</g>
	<g>
		<defs>
			<polygon id="SVGID_3_" points="1,1 2,1 1,2 			"/>
		</defs>
		<defs>
			<polygon id="SVGID_4_" points="-1,-1 -2,-1 -1,-2 			"/>
		</defs>
		<clipPath id="SVGID_5_">
			<use xlink:href="#SVGID_3_"  style="overflow:visible;"/>
		</clipPath>
		<clipPath id="SVGID_6_" class="st3">
			<use xlink:href="#SVGID_4_"  style="overflow:visible;"/>
		</clipPath>
		<path id="形状结合_3_" class="st4" d="M156,134.5H-14"/>
	</g>
</g>
<path id="形状结合_1_" class="st5" d="M-14,134.5l47.1-55l24.4,34.6l46-53.6l52.5,74"/>
<circle id="椭圆形_1_" class="st6" cx="111" cy="30.5" r="10"/>
<g>
	<g>
		
			<radialGradient id="path-4_2_" cx="50.15" cy="70.1" r="43.4848" gradientTransform="matrix(1 0 0 -1 0 142)" gradientUnits="userSpaceOnUse">
			<stop  offset="0" style="stop-color:#FFFFFF"/>
			<stop  offset="1" style="stop-color:#000000"/>
		</radialGradient>
		<path id="path-4_1_" class="st7" d="M44.6,122.5c7.2,0,13.7-1.7,19.5-5s10.3-7.9,13.4-13.7c2.4-4.1,3.9-8.8,4.5-14.3
			c0.2-1.2,0.3-3,0.3-5.2c0-3.8-0.5-7.1-1.4-9.9c-1.9-5.3-5-9.3-9.3-12.2c-4.3-2.8-9.2-4.2-14.8-4.2c-5.8,0-10.6,1.4-14.5,4.2
			c-0.2,0.2-0.4,0.2-0.6,0.1c-0.2-0.1-0.2-0.3-0.1-0.6l0,0l1.3-11c0.4-2.6,1.6-4.8,3.5-6.6s4.3-2.6,7.1-2.6c2.5,0,4.4,0.7,5.9,2.1
			s2.2,3.3,2.2,5.5l0,0l-0.1,1.3l-0.1,1.4c-0.1,0.5,0,0.9,0.3,1.2s0.7,0.5,1.1,0.5l0,0h19.6c0.5,0,0.9-0.2,1.2-0.5
			c0.3-0.3,0.5-0.7,0.6-1.2l0,0l0.6-4.8c0.2-1.5,0.3-2.6,0.3-3.3c0-6.7-2.6-12.1-7.9-16.2s-12.3-6.2-21-6.2
			c-6.3,0-12.1,1.1-17.2,3.3s-9.3,5.2-12.5,9.1s-5.1,8.4-5.8,13.5l0,0l-5.1,42c-0.3,1.8-0.4,3.5-0.4,5.2c0,3.1,0.4,6,1.3,8.8
			c1.7,5.9,5.1,10.6,10.1,14S37.5,122.5,44.6,122.5z M46.9,102.5c-3.8,0-6.4-1.6-7.8-4.9c-0.7-1.7-1-3.5-1-5.4c0-1,0-1.7,0.1-2.3
			c0.4-3.2,1.4-5.9,2.9-8c2.1-3,5-4.4,8.8-4.4c3.6,0,6.2,1.4,7.7,4.3c0.9,1.8,1.4,3.9,1.4,6.3c0,3.5-1.1,6.7-3.2,9.6
			C53.6,100.9,50.6,102.5,46.9,102.5z"/>
	</g>
	<g>
		
			<radialGradient id="SVGID_7_" cx="38.0828" cy="37.1656" r="5.8009" gradientTransform="matrix(-0.9048 0.4258 0.5893 1.2523 -1986.9454 -801.9211)" gradientUnits="userSpaceOnUse">
			<stop  offset="2.225240e-07" style="stop-color:#259F38;stop-opacity:0.5"/>
			<stop  offset="1" style="stop-color:#259F38"/>
		</radialGradient>
		<path class="st8" d="M44.6,122.5c7.2,0,13.7-1.7,19.5-5s10.3-7.9,13.4-13.7c2.4-4.1,3.9-8.8,4.5-14.3c0.2-1.2,0.3-3,0.3-5.2
			c0-3.8-0.5-7.1-1.4-9.9c-1.9-5.3-5-9.3-9.3-12.2c-4.3-2.8-9.2-4.2-14.8-4.2c-5.8,0-10.6,1.4-14.5,4.2c-0.2,0.2-0.4,0.2-0.6,0.1
			c-0.2-0.1-0.2-0.3-0.1-0.6l0,0l1.3-11c0.4-2.6,1.6-4.8,3.5-6.6s4.3-2.6,7.1-2.6c2.5,0,4.4,0.7,5.9,2.1s2.2,3.3,2.2,5.5l0,0
			l-0.1,1.3l-0.1,1.4c-0.1,0.5,0,0.9,0.3,1.2s0.7,0.5,1.1,0.5l0,0h19.6c0.5,0,0.9-0.2,1.2-0.5c0.3-0.3,0.5-0.7,0.6-1.2l0,0l0.6-4.8
			c0.2-1.5,0.3-2.6,0.3-3.3c0-6.7-2.6-12.1-7.9-16.2s-12.3-6.2-21-6.2c-6.3,0-12.1,1.1-17.2,3.3s-9.3,5.2-12.5,9.1
			s-5.1,8.4-5.8,13.5l0,0l-5.1,42c-0.3,1.8-0.4,3.5-0.4,5.2c0,3.1,0.4,6,1.3,8.8c1.7,5.9,5.1,10.6,10.1,14S37.5,122.5,44.6,122.5z
			 M46.9,102.5c-3.8,0-6.4-1.6-7.8-4.9c-0.7-1.7-1-3.5-1-5.4c0-1,0-1.7,0.1-2.3c0.4-3.2,1.4-5.9,2.9-8c2.1-3,5-4.4,8.8-4.4
			c3.6,0,6.2,1.4,7.7,4.3c0.9,1.8,1.4,3.9,1.4,6.3c0,3.5-1.1,6.7-3.2,9.6C53.6,100.9,50.6,102.5,46.9,102.5z"/>
	</g>
</g>
<path id="寸_1_" class="st9" d="M116,122.5c2.5,0,3.9-1.4,4-4v-20h7v-4h-7v-7h-4v7H93v4h23v19c-0.2,0.8-0.7,1.3-2,1
	c-1.8,0.3-4,0.3-6,0l1,4H116z M106,113.5l3-3c-2.5-3.1-5.5-6-9-9l-3,3C100.9,107.6,103.8,110.7,106,113.5z"/>
</svg>
