<?xml version="1.0" encoding="utf-8"?>
<!-- Generator: Adobe Illustrator 23.0.0, SVG Export Plug-In . SVG Version: 6.00 Build 0)  -->
<svg version="1.1" id="图层_1" xmlns="http://www.w3.org/2000/svg" xmlns:xlink="http://www.w3.org/1999/xlink" x="0px" y="0px"
	 viewBox="0 0 238 238" style="enable-background:new 0 0 238 238;" xml:space="preserve">
<style type="text/css">
	.st0{opacity:0.19;fill:#259F38;}
	.st1{fill:#CADAEC;}
	.st2{fill:#E5E6E7;}
	.st3{fill:#F7F8F8;}
	.st4{fill:#6C7C9D;}
</style>
<title>dingdan</title>
<g id="页面-2">
	<g id="空白任务" transform="translate(-256.000000, -451.000000)">
		<g id="chucuola-3" transform="translate(256.000000, 451.000000)">
			<g id="chucuola-2">
				<g id="chucuola">
					<path id="路径" class="st0" d="M215.3,204c-5.2,5.2-13.5,5.2-18.7,0c-2.2,2.1-4.3,4.3-6.5,6.5c-3,3-6.2,5.8-9.5,8.4H49.9
						c-3.3-2.6-6.5-5.5-9.5-8.5c-27.9-27.9-38-68.9-26.1-106.5L3.9,93.7c-5.2-5.2-5.2-13.5,0-18.7c5.2-5.2,13.5-5.2,18.7,0l6.5,6.6
						c2,2,4.9,2.8,7.7,2.1c2.7-0.7,4.9-2.9,5.6-5.6s0-5.7-2.1-7.7L28.2,58.2c-3.1-3.1-3.1-8.1,0-11.2c3.1-3.1,8.1-3.1,11.2,0
						l16.8,16.8c2,2.2,5,3.1,7.8,2.4s5.1-2.9,5.8-5.8c0.7-2.8-0.2-5.8-2.4-7.8l-7.2-7.2c34.2-20.8,77.2-20.5,111.1,0.8
						s52.9,59.8,49.2,99.6l15.1,15.3c3.1,3.1,3.1,8.1,0,11.2s-8.1,3.1-11.2,0l-14.8-14.9c-3.1-3.1-8.1-3.1-11.2,0s-3.1,8.1,0,11.2
						l16.8,16.8C220.4,190.5,220.4,198.9,215.3,204L215.3,204z"/>
					<path id="形状" class="st1" d="M22.6,218.2h169c0.7,0,1.3,0.6,1.3,1.3s-0.6,1.3-1.3,1.3h-169c-0.7,0-1.3-0.6-1.3-1.3
						S21.9,218.2,22.6,218.2L22.6,218.2z M204.8,218.2h7.9c0.4,0,0.7,0.1,0.9,0.4c0.2,0.2,0.4,0.6,0.4,0.9c0,0.7-0.6,1.3-1.3,1.3
						h-7.9c-0.7,0-1.3-0.6-1.3-1.3S204,218.2,204.8,218.2L204.8,218.2z M119,226.1h7.9c0.4,0,0.7,0.1,0.9,0.4
						c0.2,0.2,0.4,0.6,0.4,0.9c0,0.7-0.6,1.3-1.3,1.3H119c-0.7,0-1.3-0.6-1.3-1.3S118.2,226.1,119,226.1L119,226.1z M17.3,235.4
						h34.3c0.7,0,1.3,0.6,1.3,1.3s-0.6,1.3-1.3,1.3H17.3c-0.7,0-1.3-0.6-1.3-1.3S16.6,235.4,17.3,235.4L17.3,235.4z M80.7,235.4H210
						c0.7,0,1.3,0.6,1.3,1.3s-0.6,1.3-1.3,1.3H80.7c-0.7,0-1.3-0.6-1.3-1.3S80,235.4,80.7,235.4L80.7,235.4z M140.1,226.1h34.3
						c0.7,0,1.3,0.6,1.3,1.3s-0.6,1.3-1.3,1.3h-34.3c-0.7,0-1.3-0.6-1.3-1.3S139.4,226.1,140.1,226.1L140.1,226.1z M49,226.1h59.4
						c0.7,0,1.3,0.6,1.3,1.3s-0.6,1.3-1.3,1.3H49c-0.7,0-1.3-0.6-1.3-1.3S48.3,226.1,49,226.1L49,226.1z M153.3,13.2
						c2.1,0,4.1-1.3,4.9-3.3s0.4-4.3-1.1-5.8s-3.8-2-5.8-1.1c-2,0.8-3.3,2.7-3.3,4.9C148,10.9,150.4,13.2,153.3,13.2L153.3,13.2z
						 M153.3,15.9c-4.4,0-7.9-3.6-7.9-7.9s3.5-7.9,7.9-7.9s7.9,3.6,7.9,7.9c0,2.1-0.8,4.1-2.3,5.6C157.4,15,155.4,15.9,153.3,15.9
						L153.3,15.9z M188.9,34.4h7.9c0.7,0,1.3,0.6,1.3,1.3s-0.6,1.3-1.3,1.3h-7.9c-0.7,0-1.3-0.6-1.3-1.3S188.2,34.4,188.9,34.4
						L188.9,34.4z"/>
					<path class="st1" d="M194,31.4v8.3c0,0.8-0.7,1.4-1.5,1.4s-1.5-0.6-1.5-1.4v-8.3c0-0.8,0.7-1.4,1.5-1.4c0.4,0,0.8,0.1,1.1,0.4
						C193.8,30.7,194,31,194,31.4L194,31.4z"/>
					<path class="st1" d="M87.4,14h8.3c0.4,0,0.7,0.2,1,0.4c0.3,0.3,0.4,0.7,0.4,1.1c0,0.8-0.6,1.5-1.4,1.5h-8.3
						c-0.8,0-1.4-0.7-1.4-1.5c0-0.4,0.1-0.8,0.4-1.1C86.7,14.2,87,14,87.4,14L87.4,14z"/>
					<path class="st1" d="M93,11.4v8.3c0,0.8-0.7,1.4-1.5,1.4S90,20.4,90,19.6v-8.3c0-0.8,0.7-1.4,1.5-1.4S93,10.6,93,11.4L93,11.4z
						"/>
					<path class="st1" d="M29.4,173h8.3c0.8,0,1.4,0.7,1.4,1.5s-0.6,1.5-1.4,1.5h-8.3c-0.8,0-1.4-0.7-1.4-1.5c0-0.4,0.1-0.8,0.4-1.1
						C28.7,173.2,29,173,29.4,173L29.4,173z"/>
					<path class="st1" d="M35,170.4v8.3c0,0.8-0.7,1.4-1.5,1.4c-0.4,0-0.8-0.1-1.1-0.4c-0.3-0.3-0.4-0.6-0.4-1v-8.3
						c0-0.8,0.7-1.4,1.5-1.4S35,169.6,35,170.4L35,170.4z"/>
					<path class="st1" d="M76.4,81h8.3c0.8,0,1.4,0.7,1.4,1.5c0,0.4-0.1,0.8-0.4,1.1c-0.3,0.3-0.6,0.4-1,0.4h-8.3
						c-0.4,0-0.7-0.2-1-0.4c-0.3-0.3-0.4-0.7-0.4-1.1C75,81.7,75.6,81,76.4,81L76.4,81z"/>
					<path class="st1" d="M82,78.4v8.3c0,0.4-0.2,0.7-0.4,1c-0.3,0.3-0.7,0.4-1.1,0.4c-0.8,0-1.5-0.6-1.5-1.4v-8.3
						c0-0.8,0.7-1.4,1.5-1.4S82,77.6,82,78.4L82,78.4z"/>
					<path class="st1" d="M114.9,60.1c0.1-0.2,0.3-0.5,0.5-0.6c0.6-0.4,1.2-0.8,1.9-1.1l0.2-0.1c2.6-1.2,3.7-1.9,4.2-3.7
						c0.8-2.8-0.5-5.8-3.1-7.1c-2.6-1.2-5.8-0.3-7.3,2.1c-0.3,0.4-0.4,1-0.1,1.4s0.7,0.8,1.2,0.8s1-0.3,1.2-0.7
						c0.9-1.3,2.5-1.7,3.9-1.1s2.1,2.2,1.7,3.7c-0.2,0.7-0.9,1.2-2.7,2l-0.2,0.1c-0.9,0.3-1.8,0.8-2.5,1.4c-0.5,0.4-0.9,1-1.2,1.6
						c-0.3,0.4-0.3,1,0,1.5s0.8,0.7,1.3,0.6S114.7,60.6,114.9,60.1L114.9,60.1z"/>
					<path class="st1" d="M112.1,64.9c0.5,0.2,1.1,0,1.5-0.3s0.6-0.9,0.4-1.4c-0.1-0.5-0.5-0.9-1-1.1c-0.5-0.2-1.1,0-1.5,0.3
						s-0.6,0.9-0.4,1.4C111.2,64.4,111.5,64.8,112.1,64.9L112.1,64.9z"/>
					<path class="st1" d="M182.1,144.6c-0.1-0.3-0.1-0.5,0-0.8c0.3-0.7,0.6-1.3,1-1.9l0.1-0.2c1.5-2.3,2-3.6,1.6-5.4
						c-0.7-2.8-3.3-4.6-6-4.3c-2.7,0.3-4.8,2.7-4.9,5.6c0,0.5,0.2,0.9,0.6,1.2c0.4,0.2,0.9,0.2,1.3,0c0.4-0.2,0.6-0.7,0.6-1.2
						c0-1.6,1.1-2.9,2.6-3.1c1.5-0.2,2.9,0.8,3.2,2.3c0.2,0.7-0.1,1.4-1.2,3.1l-0.1,0.2c-0.5,0.8-1,1.6-1.3,2.5
						c-0.2,0.6-0.3,1.3-0.2,2c0.1,0.7,0.7,1.3,1.4,1.2c0.7-0.1,1.2-0.8,1.1-1.5L182.1,144.6z"/>
					<path class="st1" d="M181.1,148.9c0.1,0.5,0.5,0.9,1.1,1.1c0.5,0.1,1.1,0,1.4-0.4s0.5-0.9,0.4-1.4c-0.1-0.5-0.5-0.9-1.1-1.1
						c-0.5-0.1-1.1,0-1.4,0.4S180.9,148.4,181.1,148.9L181.1,148.9z"/>
					<path class="st1" d="M37.7,106.6c0.1-0.2,0.2-0.3,0.3-0.4c0.4-0.3,0.9-0.5,1.5-0.7h0.2c1.9-0.7,2.7-1.3,3.1-2.4
						c0.7-1.8-0.2-3.9-2.2-4.7c-2-0.8-4.3-0.2-5.4,1.5c-0.2,0.3-0.2,0.6,0,0.9s0.5,0.5,0.8,0.5c0.3,0,0.7-0.1,0.9-0.4
						c0.6-0.9,1.8-1.2,2.9-0.8c1,0.4,1.5,1.5,1.2,2.5c-0.2,0.5-0.6,0.8-2,1.3h-0.2c-0.7,0.2-1.3,0.5-1.8,0.9c-0.4,0.3-0.7,0.6-0.9,1
						c-0.2,0.4,0,1,0.5,1.2C37,107.1,37.5,106.9,37.7,106.6L37.7,106.6z"/>
					<path class="st1" d="M36.1,109.9c0.5,0.2,1.1,0,1.5-0.3c0.4-0.4,0.6-0.9,0.4-1.4s-0.5-0.9-1-1.1c-0.5-0.2-1.1,0-1.5,0.3
						c-0.4,0.4-0.6,0.9-0.4,1.4S35.5,109.8,36.1,109.9L36.1,109.9z"/>
				</g>
				<g id="MBEfenggechangyongtubiao-fapiao" transform="translate(52.000000, 74.000000)">
					<path class="st2" d="M112.3,3c-1.9,0-3.8,0.4-5.4,1.2c4.2,2,7.1,6.3,7.1,11.2v12.4h10.8V15.5C124.7,8.6,119.1,3,112.3,3
						L112.3,3z"/>
					<path class="st3" d="M107.8,4c-4.2,2-7.1,6.3-7.1,11.2v12.4h14.1V15.2C114.8,10.2,111.9,6,107.8,4L107.8,4z"/>
					<path class="st2" d="M81.6,138.1c-4.2-2-7.1-6.3-7.1-11.2v0.1H63.8c0,6.9,5.6,12.4,12.4,12.4v0.1H87v-0.1
						C85.1,139.4,83.3,138.9,81.6,138.1L81.6,138.1z"/>
					<path class="st3" d="M63.8,127L63.8,127L63.8,127z"/>
					<path class="st3" d="M42.4,2c-6.9,0-12.4,5.6-12.4,12.4V127h33.8v-0.1v0.1h10.8v-0.1c0,4.9,2.9,9.2,7.1,11.2
						c4.2-2,7.1-6.3,7.1-11.2h0.1V14.4C88.8,7.6,94.3,2,101.2,2L42.4,2L42.4,2z"/>
					<path class="st3" d="M29.9,127H17.5c0,6.9,5.6,12.4,12.4,12.4h46.3v-0.1c-6.9,0-12.4-5.5-12.4-12.4L29.9,127L29.9,127z"/>
					<path class="st2" d="M101.2,2c-6.9,0-12.4,5.6-12.4,12.4v112.5h-0.1c0,4.9-2.9,9.2-7.1,11.2c1.6,0.8,3.5,1.2,5.4,1.2
						c6.9,0,12.4-5.6,12.4-12.4h0.1V14.4c0-4.9,2.9-9.2,7.1-11.2c1.6-0.8,3.5-1.2,5.4-1.2L101.2,2L101.2,2z"/>
					<path class="st1" d="M121,43h-2.7v-2.7c0-0.7-0.5-1.2-1.2-1.2s-1.2,0.5-1.2,1.2V43h-2.7c-0.7,0-1.2,0.5-1.2,1.2
						s0.5,1.2,1.2,1.2h2.7v2.7c0,0.7,0.5,1.2,1.2,1.2s1.2-0.5,1.2-1.2v-2.7h2.7c0.7,0,1.2-0.5,1.2-1.2S121.6,43,121,43z M109.9,88.3
						c-2.3,0-4.1,1.8-4.1,4.1s1.8,4.1,4.1,4.1s4.1-1.8,4.1-4.1S112.1,88.3,109.9,88.3z M109.9,94.5c-1.2,0-2.1-1-2.1-2.1
						s1-2.1,2.1-2.1s2.1,1,2.1,2.1S111.1,94.5,109.9,94.5z M15.5,54c2.3,0,4.1-1.8,4.1-4.1s-1.8-4.1-4.1-4.1s-4.1,1.8-4.1,4.1
						S13.2,54,15.5,54z M15.5,47.8c1.2,0,2.1,1,2.1,2.1s-1,2.1-2.1,2.1s-2.1-1-2.1-2.1S14.3,47.8,15.5,47.8z M6.1,108.3
						c-0.4,0-0.8,0.4-0.8,0.8v2.6c0,0.4,0.4,0.8,0.8,0.8s0.8-0.4,0.8-0.8v-2.6C6.9,108.7,6.5,108.3,6.1,108.3z M6.1,116.2
						c-0.4,0-0.8,0.4-0.8,0.8v2.6c0,0.4,0.4,0.8,0.8,0.8s0.8-0.4,0.8-0.8V117C6.9,116.5,6.5,116.2,6.1,116.2z M10.4,117.5l-1.8-1.8
						c-0.3-0.3-0.8-0.3-1.2,0s-0.3,0.8,0,1.2l1.8,1.8c0.2,0.2,0.4,0.2,0.6,0.2s0.4-0.1,0.6-0.2C10.7,118.3,10.7,117.8,10.4,117.5z
						 M3,110.1c-0.3-0.3-0.8-0.3-1.2,0s-0.3,0.8,0,1.2l1.8,1.8c0.2,0.2,0.4,0.2,0.6,0.2s0.4-0.1,0.6-0.2c0.3-0.3,0.3-0.8,0-1.2
						L3,110.1z M3.7,115.6l-1.8,1.8c-0.3,0.3-0.3,0.8,0,1.2c0.2,0.2,0.4,0.2,0.6,0.2s0.4-0.1,0.6-0.2l1.8-1.8c0.3-0.3,0.3-0.8,0-1.2
						C4.5,115.3,4,115.3,3.7,115.6z M7.9,113.4c0.2,0,0.4-0.1,0.6-0.2l1.8-1.8c0.3-0.3,0.3-0.8,0-1.2s-0.8-0.3-1.2,0L7.4,112
						c-0.3,0.3-0.3,0.8,0,1.2C7.5,113.3,7.7,113.4,7.9,113.4z M7.9,114.4c0,0.4,0.4,0.8,0.8,0.8h2.6c0.4,0,0.8-0.4,0.8-0.8
						s-0.4-0.8-0.8-0.8H8.7C8.2,113.6,7.9,113.9,7.9,114.4z M4.3,114.4c0-0.4-0.4-0.8-0.8-0.8H0.8c-0.4,0-0.8,0.4-0.8,0.8
						s0.4,0.8,0.8,0.8h2.6C3.9,115.2,4.3,114.8,4.3,114.4z"/>
					<path class="st4" d="M99.6,105.4c-1.1,0-2,0.9-2,2v19.1c0,0.1-0.1,0.3-0.1,0.4c0,1.6-0.4,3.1-1,4.5c-0.5,1-0.1,2.1,0.9,2.6
						c0.3,0.1,0.6,0.2,0.8,0.2c0.7,0,1.4-0.4,1.8-1.1c0.9-1.8,1.3-3.7,1.4-5.7c0-0.2,0.1-0.3,0.1-0.5v-19.5
						C101.5,106.3,100.6,105.4,99.6,105.4L99.6,105.4z M93.5,135.2c-1.9,1.4-4.1,2.2-6.4,2.2c-5.8,0-10.5-4.7-10.5-10.5
						c0-1.1-0.9-2-2-2c-0.2,0-0.3,0-0.4,0.1H26.5V39.2c0-1.1-0.9-2-2-2s-2,0.9-2,2V125H12.1c-1.1,0-2,0.9-2,2
						c0,7.9,6.5,14.4,14.4,14.4h62.5c0.2,0,0.3,0,0.5-0.1c3-0.1,5.9-1.1,8.3-3c0.9-0.7,1-1.9,0.4-2.7
						C95.5,134.7,94.3,134.6,93.5,135.2L93.5,135.2z M24.6,137.5c-5.1,0-9.4-3.7-10.3-8.5h58.6c0,0.2,0.1,0.4,0.1,0.6
						c0,0.1,0,0.1,0,0.2c0,0.1,0.1,0.3,0.1,0.4l0.1,0.2c0,0.1,0.1,0.3,0.1,0.4c0,0.1,0.1,0.2,0.1,0.3l0.1,0.4c0,0.1,0.1,0.2,0.1,0.3
						l0.1,0.4c0,0.1,0.1,0.2,0.1,0.3c0,0.1,0.1,0.2,0.1,0.3c0,0.1,0.1,0.2,0.1,0.3c0.1,0.1,0.1,0.2,0.2,0.3c0,0.1,0.1,0.2,0.1,0.3
						c0.1,0.1,0.1,0.2,0.2,0.3c0,0.1,0.1,0.2,0.1,0.2l0.2,0.3c0,0.1,0.1,0.2,0.1,0.2c0.1,0.1,0.1,0.2,0.2,0.3
						c0.1,0.1,0.1,0.2,0.2,0.2c0.1,0.1,0.1,0.2,0.2,0.3s0.1,0.2,0.2,0.2c0.1,0.1,0.1,0.2,0.2,0.3c0.1,0.1,0.1,0.1,0.2,0.2
						c0.1,0.1,0.1,0.2,0.2,0.3c0.1,0.1,0.1,0.1,0.2,0.2c0.1,0.1,0.2,0.2,0.2,0.3c0.1,0.1,0.1,0.1,0.2,0.2l0.2,0.2l0.2,0.2l0.1,0.1
						H24.6L24.6,137.5z M24.6,34.4c1.1,0,2-0.9,2-2V29c0-1.1-0.9-2-2-2s-2,0.9-2,2v3.5C22.6,33.5,23.5,34.4,24.6,34.4z"/>
					<path class="st4" d="M122.2,7.1c-1,0.5-1.3,1.7-0.9,2.6c0.7,1.5,1.1,3.1,1.1,4.7v10.5h-21V14.4c0-5.8,4.7-10.5,10.5-10.5
						c2.3,0,4.5,0.7,6.3,2.1c0.9,0.6,2.1,0.5,2.7-0.4s0.5-2.1-0.4-2.7C118.2,1.1,115.2,0,112,0H37c-7.9,0-14.4,6.5-14.4,14.4v8.4
						c0,1.1,0.9,2,2,2s2-0.9,2-2v-8.4c0-5.8,4.7-10.5,10.5-10.5h65.1L102,4.1c-0.1,0.1-0.2,0.2-0.3,0.3l-0.2,0.2
						c-0.1,0.1-0.2,0.2-0.3,0.3c-0.1,0.1-0.2,0.2-0.2,0.3l-0.2,0.3c-0.1,0.1-0.1,0.2-0.2,0.3s-0.2,0.2-0.2,0.3s-0.1,0.2-0.2,0.3
						c-0.1,0.1-0.1,0.2-0.2,0.3c-0.1,0.1-0.1,0.2-0.2,0.3c-0.1,0.1-0.1,0.2-0.2,0.3l-0.2,0.3c-0.1,0.1-0.1,0.2-0.2,0.3
						c-0.1,0.1-0.1,0.2-0.2,0.3S99,8.3,98.9,8.5c0,0.1-0.1,0.2-0.1,0.3c-0.1,0.1-0.1,0.2-0.1,0.4c0,0.1-0.1,0.2-0.1,0.3l-0.1,0.4
						c0,0.1-0.1,0.2-0.1,0.3s-0.1,0.3-0.1,0.4s-0.1,0.2-0.1,0.3c0,0.1-0.1,0.3-0.1,0.4c0,0.1-0.1,0.2-0.1,0.3c0,0.1-0.1,0.3-0.1,0.4
						c0,0.1,0,0.2-0.1,0.3c0,0.1,0,0.3-0.1,0.4c0,0.1,0,0.2,0,0.3c0,0.2,0,0.3,0,0.5c0,0.1,0,0.2,0,0.3c0,0.3,0,0.5,0,0.8v86.3
						c0,1.1,0.9,2,2,2s2-0.9,2-2v-72h22.9c1.1,0,2-0.9,2-2V14.4c0-2.3-0.5-4.5-1.5-6.5C124.4,7,123.2,6.6,122.2,7.1z"/>
					<path class="st1" d="M44.2,43h32.9c1.1,0,2-0.9,2-2s-0.9-2-2-2H44.2c-1.1,0-2,0.9-2,2S43.1,43,44.2,43z M44.2,61.9h32.9
						c1.1,0,2-0.9,2-2s-0.9-2-2-2H44.2c-1.1,0-2,0.9-2,2S43.1,61.9,44.2,61.9z M44.2,80.9h32.9c1.1,0,2-0.9,2-2s-0.9-2-2-2H44.2
						c-1.1,0-2,0.9-2,2S43.1,80.9,44.2,80.9z M44.2,99.9h32.9c1.1,0,2-0.9,2-2s-0.9-2-2-2H44.2c-1.1,0-2,0.9-2,2
						S43.1,99.9,44.2,99.9z"/>
				</g>
			</g>
		</g>
	</g>
</g>
</svg>
