<?xml version="1.0" encoding="UTF-8"?>
<svg width="120px" height="120px" viewBox="0 0 120 120" version="1.1" xmlns="http://www.w3.org/2000/svg" xmlns:xlink="http://www.w3.org/1999/xlink">
    <!-- Generator: Sketch 63.1 (92452) - https://sketch.com -->
    <title>icon_weixin</title>
    <desc>Created with Sketch.</desc>
    <g id="照片打印" stroke="none" stroke-width="1" fill="none" fill-rule="evenodd">
        <g id="上传方式-1" transform="translate(-70.000000, -989.000000)">
            <g id="编组-7" transform="translate(0.000000, 912.000000)">
                <g id="编组-6" transform="translate(40.000000, 60.000000)">
                    <g id="编组-9" transform="translate(30.000000, 17.000000)">
                        <g id="编组-8">
                            <circle id="椭圆形" fill="#07C160" cx="60" cy="60" r="60"></circle>
                            <g id="weixin" transform="translate(24.000000, 30.000000)" fill="#FFFFFF" fill-rule="nonzero">
                                <path d="M49.542332,18.1296491 C50.3817953,18.1296491 51.2125286,18.1900593 52.0361671,18.2827269 C49.7948931,7.79346322 38.6379133,0 25.9018905,0 C11.6629157,0 0,9.7530834 0,22.1395569 C0,29.2918721 3.88027236,35.1603372 10.364695,39.7153717 L7.77407612,47.5464314 L16.8289279,42.983366 C20.0687717,43.626886 22.6685571,44.2906246 25.90175,44.2906246 C26.7145944,44.2906246 27.5202699,44.2498307 28.319879,44.1868848 C27.8140171,42.447445 27.520344,40.6246995 27.520344,38.7318026 C27.5204845,27.3584787 37.2380187,18.1296491 49.542332,18.1296491 Z M35.4326709,10.5424758 C37.6443003,10.5424758 39.4370784,12.3444896 39.4370784,14.5674637 C39.4370784,16.7904378 37.6442929,18.5923773 35.4326709,18.5923773 C33.2208936,18.5923773 31.4281156,16.7903635 31.4281156,14.5674637 C31.4281156,12.344564 33.2210416,10.5424758 35.4326709,10.5424758 Z M17.3100205,18.6735266 C15.0983912,18.6735266 13.3054651,16.8715127 13.3054651,14.648613 C13.3054651,12.4257133 15.0983985,10.6236994 17.3100205,10.6236994 C19.5217978,10.6236994 21.3146499,12.4257133 21.3146499,14.648613 C21.3146499,16.8714384 19.5217978,18.6735266 17.3100205,18.6735266 Z M73,38.503755 C73,28.0954844 62.6378944,19.6112452 50.9992227,19.6112452 C38.6750228,19.6112452 28.9688746,28.0954843 28.9688746,38.503755 C28.9688746,48.9300059 38.6750229,57.3957443 50.9992227,57.3957443 C53.5783077,57.3957443 56.1803125,56.741375 58.7709314,56.0887087 L65.8758887,60 L63.9273998,53.4940305 C69.126756,49.5736747 73,44.3751126 73,38.503755 Z M44.2310406,35.585982 C42.656074,35.585982 41.379434,34.3025781 41.379434,32.7197035 C41.379434,31.1366802 42.656148,29.8535736 44.2310406,29.8535736 C45.8059332,29.8535736 47.0826472,31.1367545 47.0826472,32.7197035 C47.0828025,34.3026524 45.8059406,35.585982 44.2310406,35.585982 Z M58.4701634,35.7485705 C56.8950489,35.7485705 55.6184829,34.4652409 55.6184829,32.8824406 C55.6184829,31.299343 56.8951229,30.0163108 58.4701634,30.0163108 C60.045056,30.0163108 61.32177,31.2994173 61.32177,32.8824406 C61.3218514,34.4652409 60.0450634,35.7485705 58.4701634,35.7485705 Z" id="形状"></path>
                            </g>
                        </g>
                    </g>
                </g>
            </g>
        </g>
    </g>
</svg>