<?xml version="1.0" encoding="utf-8"?>
<!-- Generator: Adobe Illustrator 23.0.0, SVG Export Plug-In . SVG Version: 6.00 Build 0)  -->
<svg version="1.1" id="图层_1" xmlns="http://www.w3.org/2000/svg" xmlns:xlink="http://www.w3.org/1999/xlink" x="0px" y="0px"
	 viewBox="0 0 120 120" style="enable-background:new 0 0 120 120;" xml:space="preserve">
<style type="text/css">
	.st0{fill-rule:evenodd;clip-rule:evenodd;fill:#EE9D18;}
	.st1{fill:#FFFFFF;}
</style>
<title>icon_bendi</title>
<desc>Created with Sketch.</desc>
<g id="照片打印">
	<g id="上传方式-1" transform="translate(-560.000000, -989.000000)">
		<g id="编组-7" transform="translate(0.000000, 912.000000)">
			<g id="编组-6备份-2" transform="translate(530.000000, 60.000000)">
				<g id="编组-11" transform="translate(30.000000, 17.000000)">
					<g id="编组-10">
						<circle id="椭圆形" class="st0" cx="60" cy="60" r="60"/>
						<g id="image-fill" transform="translate(27.000000, 34.000000)">
							<path id="形状" class="st1" d="M64.6,0H2.4C1.1,0,0,1.1,0,2.4v48.2C0,51.9,1.1,53,2.4,53h62.2c1.3,0,2.4-1.1,2.4-2.4V2.4
								C67,1.1,65.9,0,64.6,0z M20.5,10.8c2.6,0,4.8,2.2,4.8,4.8s-2.1,4.8-4.8,4.8s-4.8-2.2-4.8-4.8S17.8,10.8,20.5,10.8z
								 M58.9,43.7c-0.1,0.1-0.2,0.1-0.4,0.1h-50c-0.3,0-0.6-0.3-0.6-0.6c0-0.1,0.1-0.3,0.1-0.4l12.7-15.2c0.2-0.3,0.6-0.3,0.8-0.1
								c0,0,0.1,0,0.1,0.1l7.4,8.9l11.8-14.1c0.2-0.3,0.6-0.3,0.8-0.1c0,0,0.1,0,0.1,0.1L59,42.9C59.2,43.2,59.2,43.5,58.9,43.7z"/>
						</g>
					</g>
				</g>
			</g>
		</g>
	</g>
</g>
</svg>
