<?xml version="1.0" encoding="utf-8"?>
<!-- Generator: Adobe Illustrator 23.0.0, SVG Export Plug-In . SVG Version: 6.00 Build 0)  -->
<svg version="1.1" id="图层_1" xmlns="http://www.w3.org/2000/svg" xmlns:xlink="http://www.w3.org/1999/xlink" x="0px" y="0px"
	 viewBox="0 0 120 120" style="enable-background:new 0 0 120 120;" xml:space="preserve">
<style type="text/css">
	.st0{fill-rule:evenodd;clip-rule:evenodd;fill:#259F38;}
	.st1{fill:#FFFFFF;}
</style>
<title>icon_paizhao</title>
<desc>Created with Sketch.</desc>
<g id="照片打印">
	<g id="上传方式-1" transform="translate(-315.000000, -989.000000)">
		<g id="编组-7" transform="translate(0.000000, 912.000000)">
			<g id="编组-6备份" transform="translate(285.000000, 60.000000)">
				<g id="编组-11" transform="translate(30.000000, 17.000000)">
					<g id="编组-10">
						<circle id="椭圆形" class="st0" cx="60" cy="60" r="60"/>
						<g id="camera-fill" transform="translate(25.000000, 30.000000)">
							<path id="形状" class="st1" d="M64.4,9.1H53.3l-2.7-7.4c-0.4-1-1.4-1.7-2.5-1.7H22.9c-1.1,0-2.1,0.7-2.5,1.7l-2.7,7.4H6.6
								C2.9,9.1,0,12,0,15.6v37C0,56.1,2.9,59,6.6,59h57.9c3.6,0,6.6-2.9,6.6-6.5v-37C71,12,68.1,9.1,64.4,9.1z M35.5,46
								c-7.3,0-13.1-5.8-13.1-13s5.9-13,13.1-13s13.1,5.8,13.1,13S42.8,46,35.5,46z"/>
							<path id="路径" class="st1" d="M28,33.5c0,4.1,3.4,7.5,7.5,7.5s7.5-3.4,7.5-7.5S39.6,26,35.5,26S28,29.4,28,33.5z"/>
						</g>
					</g>
				</g>
			</g>
		</g>
	</g>
</g>
</svg>
