<?xml version="1.0" encoding="UTF-8"?>
<svg width="20px" height="20px" viewBox="0 0 20 20" version="1.1" xmlns="http://www.w3.org/2000/svg" xmlns:xlink="http://www.w3.org/1999/xlink">
    <!-- Generator: Sketch 63.1 (92452) - https://sketch.com -->
    <title>scissor</title>
    <desc>Created with Sketch.</desc>
    <g id="照片打印" stroke="none" stroke-width="1" fill="none" fill-rule="evenodd">
        <g id="5寸编辑图片-裁切" transform="translate(-297.000000, -163.000000)" fill="#DAE9FF" fill-rule="nonzero">
            <g id="裁剪框" transform="translate(0.000000, 128.000000)">
                <g id="编组-2" transform="translate(297.000000, 28.000000)">
                    <g id="scissor-2" transform="translate(0.000000, 7.000000)">
                        <g id="scissor" transform="translate(10.000000, 10.000000) rotate(-90.000000) translate(-10.000000, -10.000000) ">
                            <path d="M11.465514,10 L19.936324,1.46256684 C20.0693038,1.32887701 19.976218,1.09625668 19.7873867,1.09625668 L17.3804533,1.09625668 C17.3246018,1.09625668 17.2687503,1.11764706 17.2315159,1.15775401 L9.96284283,8.48395722 L7.56388815,6.06417112 C7.89633753,5.47326203 8.08782837,4.79144385 8.08782837,4.06417112 C8.08782837,1.82085561 6.27664418,0 4.04524398,0 C1.81384378,0 0.00265959499,1.82085561 0.00265959499,4.06417112 C0.00265959499,6.30748663 1.81384378,8.12834225 4.04524398,8.12834225 C4.78195179,8.12834225 5.4707869,7.93048128 6.06387658,7.5855615 L8.45751207,10 L6.06121698,12.4144385 C5.4681273,12.0695187 4.7792922,11.8716578 4.04258439,11.8716578 C1.81118419,11.8716578 0,13.6925134 0,15.9358289 C0,18.1791444 1.81118419,20 4.04258439,20 C6.27398458,20 8.08516877,18.1791444 8.08516877,15.9358289 C8.08516877,15.2085561 7.89367793,14.526738 7.56122856,13.9358289 L9.96018324,11.5160428 L17.2288563,18.842246 C17.2687503,18.8823529 17.3219422,18.9037433 17.3777937,18.9037433 L19.7873867,18.9037433 C19.976218,18.9037433 20.0719634,18.6737968 19.936324,18.5374332 L11.465514,10 Z M4.04258439,6.20320856 C2.86970299,6.20320856 1.91490839,5.24331551 1.91490839,4.06417112 C1.91490839,2.88502674 2.86970299,1.92513369 4.04258439,1.92513369 C5.21546578,1.92513369 6.17026038,2.88502674 6.17026038,4.06417112 C6.17026038,5.24331551 5.21546578,6.20320856 4.04258439,6.20320856 Z M4.04258439,18.0748663 C2.86970299,18.0748663 1.91490839,17.1149733 1.91490839,15.9358289 C1.91490839,14.7566845 2.86970299,13.7967914 4.04258439,13.7967914 C5.21546578,13.7967914 6.17026038,14.7566845 6.17026038,15.9358289 C6.17026038,17.1149733 5.21546578,18.0748663 4.04258439,18.0748663 Z" id="形状"></path>
                        </g>
                    </g>
                </g>
            </g>
        </g>
    </g>
</svg>