<?xml version="1.0" encoding="utf-8"?>
<!-- Generator: Adobe Illustrator 23.0.0, SVG Export Plug-In . SVG Version: 6.00 Build 0)  -->
<svg version="1.1" id="图层_1" xmlns="http://www.w3.org/2000/svg" xmlns:xlink="http://www.w3.org/1999/xlink" x="0px" y="0px"
	 viewBox="0 0 40 40" style="enable-background:new 0 0 40 40;" xml:space="preserve">
<style type="text/css">
	.st0{fill-rule:evenodd;clip-rule:evenodd;fill:#259F38;}
	.st1{fill:none;stroke:#259F38;stroke-width:2;}
</style>
<title>xuanzhuan</title>
<g id="页面-3">
	<g transform="translate(-422.000000, -1264.000000)">
		<g id="编组-5" transform="translate(0.000000, 1234.000000)">
			<g id="编组-4" transform="translate(30.000000, 17.000000)">
				<g id="编组-6" transform="translate(390.000000, 7.000000)">
					<g id="编组-3">
						<path id="形状结合" class="st0" d="M31.8,10.5c9.1,5.2,12.2,16.9,7,26c-2,3.5-5,6.2-8.5,7.7L29,41.4
							c2.9-1.3,5.4-3.5,7.1-6.5c4.4-7.7,1.8-17.4-5.9-21.9s-17.4-1.8-21.9,5.9c-1.7,3-2.4,6.3-2.1,9.4l-3,0.3
							C3,24.9,3.8,20.9,5.8,17.4C11.1,8.3,22.7,5.2,31.8,10.5z"/>
						<polyline id="路径-4" class="st1" points="30,35.3 30,43.3 38,43.3 						"/>
						<circle id="椭圆形" class="st1" cx="22" cy="27" r="4"/>
					</g>
				</g>
			</g>
		</g>
	</g>
</g>
</svg>
